# xmcd
#
# Track frame offsets:
#	150
#	13754
#	31628
#	51819
#	73981
#	91024
#	104689
#	120860
#	136315
#	153746
#	163419
#	178376
#	197015
#	209998
#	228959
#	245329
#	261802
#	276924
#	294554
#	307203
#	321406
#	339073
#
# Disc length: 4721 seconds
#
# Revision: 1
# Processed by: cddbd v1.5.2PL0 Copyright (c) Steve Scherf et al.
# Submitted via: audiograbber 1.83.01
#
DISCID=50126f16
DTITLE=Country Hotdisc - Country Hotdisc 112
DYEAR=2008
DGENRE=Country
TTITLE0=Don´t Colour Me Blue - Tyler
TTITLE1=Chasin´  Butterflies  - Tyler
TTITLE2=Paradise  - Darren Hicks
TTITLE3=Missed You  - Peter Mason
TTITLE4=Whisky, Woman and Wine  - Highway Dave and The Varmints
TTITLE5=Midwestern Skies  - The Diablos
TTITLE6=Long Gone Loner  - Richard Frankz
TTITLE7=Beatiful Lie  - Peter and Rowers With Joe Diffie
TTITLE8=She Likes It In The Morning  - Clive John
TTITLE9=Gonna Go Fishin´  - Clay Walker
TTITLE10=tigerfm@tigerfm.dk - Manson Grant and The Dynamos
TTITLE11=I Threw Away My Rose  - Thomas Maguire and Fiona Ennis
TTITLE12=I´m Done  - Kenny Milam
TTITLE13=Goldrush  - Jo Dee Messina
TTITLE14=Stones Across The River  - Mckenzie
TTITLE15=I´m Gonna Live  - Sprockett
TTITLE16=I Refuse To Get The Blues  - Todd Eliott
TTITLE17=Cold Winter´s Night  - David Statzer
TTITLE18=Ragges Old Flag, Glory, Glory Hallalujah  - Bryan Chalker With Shag Co
TTITLE18=nnor
TTITLE19=Break Away For The Freedom - George Hamilton Iv
TTITLE20=So Little Love In The World  - Nick Mccarthy &the Yellowstone Picnic B
TTITLE20=and
TTITLE21=What Can I Do  - Dick Shuey
EXTD=
EXTT0=
EXTT1=
EXTT2=
EXTT3=
EXTT4=
EXTT5=
EXTT6=
EXTT7=
EXTT8=
EXTT9=
EXTT10=
EXTT11=
EXTT12=
EXTT13=
EXTT14=
EXTT15=
EXTT16=
EXTT17=
EXTT18=
EXTT19=
EXTT20=
EXTT21=
PLAYORDER=
